# xmcd
#
# Track frame offsets: 
#        150
#        2943
#        12928
#        28580
#        37751
#        54083
#        66598
#        77950
#        91999
#        95537
#        118743
#        129876
#        136541
#        143203
#        155010
#        164212
#        177817
#        193039
#        210307
#        217625
#        227419
#        246595
#
# Disc length: 3383 seconds
#
# Revision: 0
# Processed by: cddbd v1.5.2PL0 Copyright (c) Steve Scherf et al.
# Submitted via: ExactAudioCopy v0.95b4
#
DISCID=230d3516
DTITLE=echoes of home - heimatklänge
DYEAR=2007
DGENRE=Ethnic
TTITLE0=INTRO JUCHZER (IMPROVISATION)
TTITLE1=SO SO ZÄUERLI
TTITLE2=MINEUR
TTITLE3=CRY-BABY
TTITLE4=MERMAID
TTITLE5=STAMMTISCH ZÄUERLI
TTITLE6=BOOZULAND
TTITLE7=CHLAUSE ZÄUERLI
TTITLE8=MOGELSBERG ÄS (IMPROVISATION)
TTITLE9=TRIAHOTALA
TTITLE10=DER HOLDERBAUM
TTITLE11=MOGELSBERG ZWÄ (IMPROVISATION)
TTITLE12=HOCHDTITTLER
TTITLE13=SEELU FEEÄ
TTITLE14=PRAYER ANCESTORS
TTITLE15=SONG OF CARAVAN DRIVERS
TTITLE16=BAUTZ
TTITLE17=DER AMTMANN
TTITLE18=MOGELSBERG DRÜ (IMPROVISATION)
TTITLE19=ACADEMIS
TTITLE20=PILGERFAHRT
TTITLE21=ABSPANNMUSIK
EXTD=
EXTT0=
EXTT1=
EXTT2=
EXTT3=
EXTT4=
EXTT5=
EXTT6=
EXTT7=
EXTT8=
EXTT9=
EXTT10=
EXTT11=
EXTT12=
EXTT13=
EXTT14=
EXTT15=
EXTT16=
EXTT17=
EXTT18=
EXTT19=
EXTT20=
EXTT21=
PLAYORDER=
